<svg width="9" height="7" viewBox="0 0 9 7" fill="none" xmlns="http://www.w3.org/2000/svg">
<path d="M3.53133 6.51298C3.40947 6.46221 3.29887 6.38782 3.20591 6.29409L1.28591 4.37409C1.09761 4.18579 0.991817 3.93039 0.991817 3.66409C0.991817 3.39779 1.09761 3.14239 1.28591 2.95409C1.47421 2.76579 1.72961 2.66 1.99591 2.66C2.26221 2.66 2.51761 2.76579 2.70591 2.95409L3.91591 4.17409L7.28591 0.794091C7.47421 0.605788 7.72961 0.5 7.99591 0.5C8.26221 0.5 8.51761 0.605788 8.70591 0.794091C8.89421 0.982395 9 1.23779 9 1.50409C9 1.77039 8.89421 2.02579 8.70591 2.21409L4.62591 6.29409C4.53295 6.38782 4.42234 6.46221 4.30049 6.51298C4.17863 6.56375 4.04792 6.58989 3.91591 6.58989C3.7839 6.58989 3.65319 6.56375 3.53133 6.51298Z" fill="#F06000"/>
</svg>
