<svg width="181" height="24" viewBox="0 0 181 24" fill="none" xmlns="http://www.w3.org/2000/svg">
<path d="M3.78 19.234C3.648 19.234 3.516 19.228 3.384 19.216C3.264 19.204 3.156 19.186 3.06 19.162V16.48C3.156 16.492 3.252 16.504 3.348 16.516C3.444 16.528 3.558 16.534 3.69 16.534C3.954 16.534 4.17 16.522 4.338 16.498C4.506 16.462 4.644 16.408 4.752 16.336C4.86 16.264 4.95 16.168 5.022 16.048C5.094 15.928 5.16 15.778 5.22 15.598L0.18 6.4H3.456L6.804 12.79L9.432 6.4H12.6L8.388 15.94C8.112 16.552 7.842 17.068 7.578 17.488C7.314 17.896 7.008 18.232 6.66 18.496C6.312 18.76 5.904 18.946 5.436 19.054C4.98 19.174 4.428 19.234 3.78 19.234ZM19.0136 15.652C18.7376 15.808 18.4196 15.952 18.0596 16.084C17.6996 16.216 17.2316 16.282 16.6556 16.282C15.4436 16.282 14.5556 15.994 13.9916 15.418C13.4276 14.842 13.1456 13.966 13.1456 12.79V9.46H15.9176V12.52C15.9176 13.048 16.0316 13.426 16.2596 13.654C16.4876 13.87 16.8896 13.978 17.4656 13.978C17.8736 13.978 18.2096 13.93 18.4736 13.834C18.7376 13.726 18.9176 13.624 19.0136 13.528V9.46H21.7856V19H19.0136V15.652ZM28.3591 19.234C27.6631 19.234 27.0091 19.138 26.3971 18.946C25.7971 18.742 25.2751 18.436 24.8311 18.028C24.3871 17.62 24.0391 17.11 23.7871 16.498C23.5351 15.874 23.4091 15.148 23.4091 14.32V13.96C23.4091 13.168 23.5291 12.478 23.7691 11.89C24.0211 11.302 24.3571 10.81 24.7771 10.414C25.2091 10.018 25.7131 9.724 26.2891 9.532C26.8771 9.328 27.5071 9.226 28.1791 9.226C29.7511 9.226 30.9391 9.634 31.7431 10.45C32.5471 11.254 32.9491 12.424 32.9491 13.96V14.95H26.2531C26.2651 15.322 26.3311 15.64 26.4511 15.904C26.5711 16.156 26.7271 16.366 26.9191 16.534C27.1111 16.702 27.3271 16.828 27.5671 16.912C27.8191 16.984 28.0831 17.02 28.3591 17.02C28.8871 17.02 29.3011 16.942 29.6011 16.786C29.9131 16.618 30.1171 16.396 30.2131 16.12H32.7691C32.5771 17.164 32.1031 17.944 31.3471 18.46C30.5911 18.976 29.5951 19.234 28.3591 19.234ZM28.2691 11.422C28.0171 11.422 27.7711 11.452 27.5311 11.512C27.3031 11.572 27.0931 11.674 26.9011 11.818C26.7211 11.95 26.5711 12.124 26.4511 12.34C26.3431 12.556 26.2831 12.82 26.2711 13.132H30.2311C30.2311 12.796 30.1771 12.52 30.0691 12.304C29.9611 12.088 29.8171 11.914 29.6371 11.782C29.4691 11.65 29.2651 11.56 29.0251 11.512C28.7851 11.452 28.5331 11.422 28.2691 11.422ZM38.9763 19.234C38.2803 19.234 37.6323 19.12 37.0323 18.892C36.4443 18.652 35.9343 18.304 35.5023 17.848C35.0703 17.38 34.7283 16.804 34.4763 16.12C34.2363 15.424 34.1163 14.614 34.1163 13.69V13.33C34.1163 12.262 34.2003 11.308 34.3683 10.468C34.5483 9.628 34.8363 8.914 35.2323 8.326C35.6403 7.726 36.1683 7.264 36.8163 6.94C37.4643 6.604 38.2683 6.412 39.2283 6.364C39.6003 6.352 39.9723 6.34 40.3443 6.328C40.7283 6.316 41.0883 6.298 41.4243 6.274C41.7723 6.25 42.0903 6.214 42.3783 6.166C42.6663 6.118 42.9123 6.046 43.1163 5.95V8.326C43.0203 8.386 42.8823 8.44 42.7023 8.488C42.5343 8.524 42.3063 8.56 42.0183 8.596C41.7303 8.632 41.3823 8.662 40.9743 8.686C40.5663 8.71 40.0743 8.728 39.4983 8.74C38.9703 8.74 38.5143 8.794 38.1303 8.902C37.7583 9.01 37.4403 9.184 37.1763 9.424C36.9243 9.652 36.7263 9.952 36.5823 10.324C36.4383 10.684 36.3363 11.122 36.2763 11.638C36.5403 11.158 36.9543 10.756 37.5183 10.432C38.0823 10.108 38.8383 9.946 39.7863 9.946C40.3743 9.946 40.9143 10.036 41.4063 10.216C41.9103 10.384 42.3423 10.642 42.7023 10.99C43.0623 11.326 43.3383 11.758 43.5303 12.286C43.7343 12.802 43.8363 13.402 43.8363 14.086V14.428C43.8363 15.184 43.7103 15.862 43.4583 16.462C43.2063 17.062 42.8643 17.566 42.4323 17.974C42.0003 18.382 41.4843 18.694 40.8843 18.91C40.2963 19.126 39.6603 19.234 38.9763 19.234ZM38.9763 16.93C39.6243 16.93 40.1223 16.726 40.4703 16.318C40.8183 15.898 40.9923 15.352 40.9923 14.68V14.302C40.9923 13.594 40.8123 13.048 40.4523 12.664C40.0923 12.268 39.6003 12.07 38.9763 12.07C38.3643 12.07 37.8723 12.262 37.5003 12.646C37.1403 13.03 36.9603 13.582 36.9603 14.302V14.608C36.9603 15.304 37.1523 15.868 37.5363 16.3C37.9203 16.72 38.4003 16.93 38.9763 16.93ZM45.2848 9.46H48.0568V13.006H51.6928V9.46H54.4648V19H51.6928V15.274H48.0568V19H45.2848V9.46ZM59.2411 19.234C58.7251 19.234 58.2631 19.156 57.8551 19C57.4591 18.844 57.1231 18.634 56.8471 18.37C56.5711 18.094 56.3611 17.776 56.2171 17.416C56.0731 17.044 56.0011 16.642 56.0011 16.21C56.0011 15.262 56.2891 14.536 56.8651 14.032C57.4531 13.528 58.3351 13.276 59.5111 13.276H62.2291V12.88C62.2291 12.304 62.0911 11.908 61.8151 11.692C61.5391 11.464 61.1611 11.35 60.6811 11.35C60.2251 11.35 59.8891 11.422 59.6731 11.566C59.4571 11.71 59.3371 11.938 59.3131 12.25H56.5411C56.5651 11.818 56.6731 11.422 56.8651 11.062C57.0571 10.69 57.3271 10.372 57.6751 10.108C58.0351 9.832 58.4731 9.616 58.9891 9.46C59.5051 9.304 60.0991 9.226 60.7711 9.226C61.3951 9.226 61.9651 9.298 62.4811 9.442C63.0091 9.574 63.4591 9.796 63.8311 10.108C64.2031 10.408 64.4911 10.804 64.6951 11.296C64.8991 11.776 65.0011 12.364 65.0011 13.06V16.57C65.0011 17.074 65.0131 17.518 65.0371 17.902C65.0611 18.274 65.0971 18.64 65.1451 19H62.5171C62.4931 18.796 62.4691 18.616 62.4451 18.46C62.4331 18.304 62.4271 18.112 62.4271 17.884C62.1391 18.268 61.7371 18.592 61.2211 18.856C60.7171 19.108 60.0571 19.234 59.2411 19.234ZM60.1411 17.29C60.7291 17.29 61.2211 17.122 61.6171 16.786C62.0251 16.45 62.2291 15.988 62.2291 15.4V15.004H60.0511C59.6431 15.004 59.3371 15.112 59.1331 15.328C58.9411 15.544 58.8451 15.796 58.8451 16.084C58.8451 16.432 58.9411 16.72 59.1331 16.948C59.3371 17.176 59.6731 17.29 60.1411 17.29ZM68.6925 15.472C67.9725 15.232 67.4445 14.878 67.1085 14.41C66.7845 13.93 66.6225 13.378 66.6225 12.754C66.6225 12.286 66.7005 11.854 66.8565 11.458C67.0245 11.05 67.2765 10.702 67.6125 10.414C67.9485 10.114 68.3745 9.88 68.8905 9.712C69.4185 9.544 70.0425 9.46 70.7625 9.46H75.4425V19H72.6705V15.778H71.3025L69.2865 19H66.2625L68.6925 15.472ZM69.3945 12.754C69.3945 13.09 69.5145 13.336 69.7545 13.492C70.0065 13.648 70.3125 13.726 70.6725 13.726H72.6705V11.728H70.6725C70.3125 11.728 70.0065 11.812 69.7545 11.98C69.5145 12.148 69.3945 12.406 69.3945 12.754ZM81.7418 9.46H90.7418V19H87.9698V11.728H84.5138V19H81.7418V9.46ZM92.8048 19.234C92.7088 19.234 92.5708 19.228 92.3908 19.216C92.2228 19.216 92.0908 19.204 91.9948 19.18V16.768C92.0548 16.78 92.1448 16.786 92.2648 16.786C92.4688 16.786 92.6488 16.726 92.8048 16.606C92.9608 16.474 93.0928 16.264 93.2008 15.976C93.3088 15.676 93.3868 15.292 93.4348 14.824C93.4948 14.344 93.5248 13.756 93.5248 13.06V9.46H101.445V19H98.6728V11.728H96.1168V13.42C96.1168 14.608 96.0448 15.58 95.9008 16.336C95.7568 17.092 95.5468 17.686 95.2708 18.118C94.9948 18.55 94.6468 18.844 94.2268 19C93.8188 19.156 93.3448 19.234 92.8048 19.234ZM106.21 19.234C105.694 19.234 105.232 19.156 104.824 19C104.428 18.844 104.092 18.634 103.816 18.37C103.54 18.094 103.33 17.776 103.186 17.416C103.042 17.044 102.97 16.642 102.97 16.21C102.97 15.262 103.258 14.536 103.834 14.032C104.422 13.528 105.304 13.276 106.48 13.276H109.198V12.88C109.198 12.304 109.06 11.908 108.784 11.692C108.508 11.464 108.13 11.35 107.65 11.35C107.194 11.35 106.858 11.422 106.642 11.566C106.426 11.71 106.306 11.938 106.282 12.25H103.51C103.534 11.818 103.642 11.422 103.834 11.062C104.026 10.69 104.296 10.372 104.644 10.108C105.004 9.832 105.442 9.616 105.958 9.46C106.474 9.304 107.068 9.226 107.74 9.226C108.364 9.226 108.934 9.298 109.45 9.442C109.978 9.574 110.428 9.796 110.8 10.108C111.172 10.408 111.46 10.804 111.664 11.296C111.868 11.776 111.97 12.364 111.97 13.06V16.57C111.97 17.074 111.982 17.518 112.006 17.902C112.03 18.274 112.066 18.64 112.114 19H109.486C109.462 18.796 109.438 18.616 109.414 18.46C109.402 18.304 109.396 18.112 109.396 17.884C109.108 18.268 108.706 18.592 108.19 18.856C107.686 19.108 107.026 19.234 106.21 19.234ZM107.11 17.29C107.698 17.29 108.19 17.122 108.586 16.786C108.994 16.45 109.198 15.988 109.198 15.4V15.004H107.02C106.612 15.004 106.306 15.112 106.102 15.328C105.91 15.544 105.814 15.796 105.814 16.084C105.814 16.432 105.91 16.72 106.102 16.948C106.306 17.176 106.642 17.29 107.11 17.29ZM115.899 11.728H112.965V9.46H121.605V11.728H118.671V19H115.899V11.728ZM127.325 19.234C125.705 19.234 124.463 18.82 123.599 17.992C122.747 17.152 122.321 15.928 122.321 14.32V13.96C122.321 12.424 122.747 11.254 123.599 10.45C124.463 9.634 125.705 9.226 127.325 9.226V6.4H130.097V9.226C131.705 9.226 132.941 9.634 133.805 10.45C134.669 11.254 135.101 12.424 135.101 13.96V14.32C135.101 15.928 134.669 17.152 133.805 17.992C132.941 18.82 131.705 19.234 130.097 19.234V22.6H127.325V19.234ZM132.293 13.96C132.293 13.156 132.107 12.55 131.735 12.142C131.363 11.734 130.781 11.53 129.989 11.53V16.93C130.781 16.93 131.363 16.708 131.735 16.264C132.107 15.808 132.293 15.16 132.293 14.32V13.96ZM125.129 14.32C125.129 15.172 125.315 15.82 125.687 16.264C126.059 16.708 126.641 16.93 127.433 16.93V11.53C126.617 11.53 126.029 11.74 125.669 12.16C125.309 12.58 125.129 13.18 125.129 13.96V14.32ZM141.033 19.234C140.361 19.234 139.731 19.138 139.143 18.946C138.555 18.742 138.039 18.436 137.595 18.028C137.151 17.62 136.803 17.11 136.551 16.498C136.299 15.874 136.173 15.148 136.173 14.32V13.96C136.173 13.18 136.299 12.496 136.551 11.908C136.803 11.32 137.151 10.828 137.595 10.432C138.039 10.036 138.555 9.736 139.143 9.532C139.731 9.328 140.361 9.226 141.033 9.226C141.705 9.226 142.335 9.328 142.923 9.532C143.511 9.736 144.027 10.036 144.471 10.432C144.915 10.828 145.263 11.32 145.515 11.908C145.767 12.496 145.893 13.18 145.893 13.96V14.32C145.893 15.136 145.767 15.856 145.515 16.48C145.263 17.092 144.915 17.602 144.471 18.01C144.027 18.418 143.511 18.724 142.923 18.928C142.335 19.132 141.705 19.234 141.033 19.234ZM141.033 16.93C141.681 16.93 142.179 16.696 142.527 16.228C142.875 15.76 143.049 15.124 143.049 14.32V13.96C143.049 13.24 142.875 12.658 142.527 12.214C142.179 11.758 141.681 11.53 141.033 11.53C140.385 11.53 139.887 11.758 139.539 12.214C139.191 12.658 139.017 13.24 139.017 13.96V14.32C139.017 15.148 139.191 15.79 139.539 16.246C139.887 16.702 140.385 16.93 141.033 16.93ZM147.326 9.46H149.882V10.756C150.002 10.564 150.152 10.378 150.332 10.198C150.524 10.006 150.746 9.838 150.998 9.694C151.25 9.55 151.532 9.436 151.844 9.352C152.156 9.268 152.492 9.226 152.852 9.226C154.196 9.226 155.216 9.622 155.912 10.414C156.608 11.206 156.956 12.388 156.956 13.96V14.32C156.956 15.136 156.86 15.85 156.668 16.462C156.476 17.074 156.2 17.584 155.84 17.992C155.48 18.4 155.048 18.712 154.544 18.928C154.04 19.132 153.476 19.234 152.852 19.234C152.312 19.234 151.796 19.114 151.304 18.874C150.824 18.622 150.422 18.262 150.098 17.794V22.6H147.326V9.46ZM152.186 16.948C152.738 16.948 153.194 16.726 153.554 16.282C153.926 15.838 154.112 15.184 154.112 14.32V13.96C154.112 13.132 153.932 12.52 153.572 12.124C153.224 11.716 152.762 11.512 152.186 11.512C151.598 11.512 151.1 11.698 150.692 12.07C150.296 12.43 150.098 12.97 150.098 13.69V14.59C150.098 15.346 150.296 15.928 150.692 16.336C151.1 16.744 151.598 16.948 152.186 16.948ZM158.4 9.46H161.766L164.034 14.194L166.302 9.46H169.56V19H166.932V13.15L164.88 17.2H163.08L161.028 13.15V19H158.4V9.46ZM174.325 19.234C173.809 19.234 173.347 19.156 172.939 19C172.543 18.844 172.207 18.634 171.931 18.37C171.655 18.094 171.445 17.776 171.301 17.416C171.157 17.044 171.085 16.642 171.085 16.21C171.085 15.262 171.373 14.536 171.949 14.032C172.537 13.528 173.419 13.276 174.595 13.276H177.313V12.88C177.313 12.304 177.175 11.908 176.899 11.692C176.623 11.464 176.245 11.35 175.765 11.35C175.309 11.35 174.973 11.422 174.757 11.566C174.541 11.71 174.421 11.938 174.397 12.25H171.625C171.649 11.818 171.757 11.422 171.949 11.062C172.141 10.69 172.411 10.372 172.759 10.108C173.119 9.832 173.557 9.616 174.073 9.46C174.589 9.304 175.183 9.226 175.855 9.226C176.479 9.226 177.049 9.298 177.565 9.442C178.093 9.574 178.543 9.796 178.915 10.108C179.287 10.408 179.575 10.804 179.779 11.296C179.983 11.776 180.085 12.364 180.085 13.06V16.57C180.085 17.074 180.097 17.518 180.121 17.902C180.145 18.274 180.181 18.64 180.229 19H177.601C177.577 18.796 177.553 18.616 177.529 18.46C177.517 18.304 177.511 18.112 177.511 17.884C177.223 18.268 176.821 18.592 176.305 18.856C175.801 19.108 175.141 19.234 174.325 19.234ZM175.225 17.29C175.813 17.29 176.305 17.122 176.701 16.786C177.109 16.45 177.313 15.988 177.313 15.4V15.004H175.135C174.727 15.004 174.421 15.112 174.217 15.328C174.025 15.544 173.929 15.796 173.929 16.084C173.929 16.432 174.025 16.72 174.217 16.948C174.421 17.176 174.757 17.29 175.225 17.29Z" fill="#212329"/>
</svg>
